<?xml version="1.0" standalone="no"?>
<!DOCTYPE svg PUBLIC "-//W3C//DTD SVG 20010904//EN"
 "http://www.w3.org/TR/2001/REC-SVG-20010904/DTD/svg10.dtd">
<svg version="1.0" xmlns="http://www.w3.org/2000/svg"
 width="3456.000000pt" height="3456.000000pt" viewBox="0 0 3456.000000 3456.000000"
 preserveAspectRatio="xMidYMid meet">
<metadata>
Created by potrace 1.11, written by Peter Selinger 2001-2013
</metadata>
<g transform="translate(0.000000,3456.000000) scale(0.100000,-0.100000)"
fill="#000000" stroke="none">
<path d="M10049 21285 c-3 -3 -66 -8 -140 -11 -184 -8 -276 -15 -374 -30 -72
-11 -91 -15 -115 -19 -14 -3 -38 -7 -55 -10 -122 -16 -377 -82 -550 -141 -71
-24 -137 -46 -145 -48 -21 -6 -209 -85 -242 -102 -15 -8 -29 -14 -30 -13 -2 1
-61 -29 -133 -66 -150 -77 -327 -182 -402 -237 -29 -21 -53 -35 -53 -31 0 4
-4 3 -8 -2 -4 -6 -52 -43 -107 -84 -202 -150 -397 -327 -581 -527 -54 -57
-119 -136 -197 -238 -43 -55 -84 -108 -91 -116 -7 -9 -15 -24 -19 -33 -3 -9
-11 -17 -17 -17 -5 0 -10 -5 -10 -11 0 -7 -15 -32 -33 -58 -37 -51 -160 -256
-170 -283 -11 -30 -21 -20 -45 45 -43 113 -157 353 -179 375 -7 8 -11 17 -8
22 3 5 2 10 -2 12 -10 4 -113 167 -113 178 0 5 -4 10 -8 12 -5 2 -22 23 -39
48 -18 25 -42 57 -55 72 -42 48 -58 68 -58 72 0 8 -76 91 -176 190 -127 128
-214 210 -214 201 0 -3 -11 4 -25 17 -35 33 -119 97 -192 145 -72 49 -94 63
-98 63 -3 0 -28 15 -57 34 -49 30 -254 133 -338 169 -51 21 -178 68 -187 69
-4 1 -37 11 -73 23 -65 22 -213 59 -280 70 -19 3 -48 8 -65 12 -16 3 -37 7
-45 8 -8 1 -40 5 -70 10 -100 15 -122 15 -601 19 -262 2 -482 6 -488 10 -6 4
-11 4 -11 -1 0 -7 -105 -9 -120 -3 -3 1 -9 1 -15 0 -35 -7 -125 -4 -129 5 -3
7 -5 7 -5 -1 -1 -6 -24 -9 -63 -7 -81 5 -80 5 -103 0 -11 -2 -26 0 -32 6 -7 5
-13 6 -13 1 0 -8 -104 -11 -120 -4 -3 1 -9 1 -15 0 -35 -7 -125 -4 -129 5 -3
7 -5 7 -5 -1 -1 -6 -24 -9 -63 -7 -81 5 -80 5 -103 0 -11 -2 -26 0 -33 6 -6 5
-12 6 -12 1 0 -12 -133 -11 -142 1 -5 7 -8 7 -8 0 0 -7 -153 -9 -442 -8 -244
2 -447 3 -453 4 -5 0 -19 -2 -30 -4 -11 -2 -26 0 -32 6 -7 5 -13 6 -13 1 0 -8
-104 -11 -120 -4 -3 1 -9 1 -15 0 -36 -7 -125 -4 -125 5 0 6 -3 7 -8 0 -8 -11
-102 -12 -120 -1 -7 4 -12 3 -12 -1 0 -5 -35 -7 -78 -6 -42 2 -81 4 -87 4 -5
0 -19 -2 -30 -4 -11 -2 -26 0 -32 6 -7 5 -13 6 -13 1 0 -10 -106 -11 -116 -2
-3 4 -16 3 -28 -1 -11 -4 -41 -6 -66 -5 -56 3 -74 -2 -64 -18 11 -17 12 -48 3
-48 -4 0 -4 -12 0 -28 5 -15 5 -37 0 -49 -5 -13 -4 -25 1 -28 6 -3 6 -15 0
-30 -5 -14 -5 -27 0 -30 5 -3 5 -18 0 -33 -4 -16 -4 -36 1 -45 6 -9 5 -18 0
-21 -6 -4 -6 -18 -1 -36 5 -17 6 -30 2 -30 -8 0 -6 -86 3 -99 3 -5 1 -12 -4
-16 -7 -4 -7 -15 -1 -30 5 -14 6 -25 1 -25 -5 0 -5 -16 -1 -35 4 -19 5 -35 1
-35 -7 0 -6 -133 2 -154 4 -9 2 -18 -3 -21 -5 -3 -5 -18 0 -35 5 -17 6 -30 2
-30 -8 0 -6 -86 3 -99 3 -5 1 -12 -4 -16 -7 -4 -7 -15 -1 -30 6 -15 6 -25 0
-25 -5 0 -5 -12 0 -29 4 -16 6 -32 3 -35 -8 -8 -9 -76 -2 -76 4 0 3 -15 -1
-34 -4 -18 -3 -40 1 -49 6 -9 5 -18 0 -21 -6 -4 -6 -18 -1 -36 5 -17 6 -30 2
-30 -8 0 -6 -86 3 -99 3 -5 1 -12 -4 -16 -7 -4 -7 -15 -1 -30 5 -14 6 -25 1
-25 -5 0 -5 -16 -1 -35 4 -19 5 -35 1 -35 -7 0 -6 -133 2 -154 4 -9 2 -18 -3
-21 -5 -3 -5 -18 0 -35 5 -17 6 -30 2 -30 -8 0 -6 -86 3 -99 3 -5 1 -12 -4
-16 -7 -4 -7 -15 -1 -30 6 -15 6 -25 0 -25 -5 0 -5 -12 0 -29 4 -16 6 -32 3
-35 -8 -8 -9 -76 -2 -76 4 0 3 -15 -1 -34 -4 -18 -3 -40 1 -49 6 -9 5 -18 0
-21 -6 -4 -6 -18 -1 -36 5 -17 6 -30 2 -30 -8 0 -6 -86 3 -99 3 -5 1 -12 -4
-16 -7 -4 -7 -15 -1 -30 5 -14 6 -25 2 -25 -11 0 -5 -172 6 -179 6 -3 3842 -6
8526 -5 l8516 0 -18 -20 c-9 -11 -21 -25 -27 -31 -5 -6 -39 -44 -75 -84 -124
-140 -416 -424 -505 -492 -16 -13 -32 -26 -35 -29 -3 -3 -30 -25 -60 -50 -30
-25 -57 -47 -60 -51 -13 -14 -256 -193 -355 -260 -60 -40 -111 -77 -113 -81
-2 -5 -7 -8 -12 -8 -8 0 -109 -59 -120 -70 -3 -3 -18 -13 -35 -22 -16 -9 -75
-42 -130 -74 -55 -32 -136 -76 -180 -99 -44 -23 -91 -48 -105 -55 -14 -8 -27
-15 -30 -15 -3 -1 -54 -25 -115 -54 -147 -71 -213 -101 -219 -101 -3 0 -35
-13 -71 -30 -36 -16 -67 -30 -70 -30 -2 0 -16 -5 -32 -12 -15 -6 -30 -12 -33
-13 -7 -2 -61 -24 -80 -32 -8 -3 -17 -7 -20 -7 -4 -1 -92 -32 -150 -54 -8 -3
-19 -6 -25 -8 -5 -1 -35 -12 -65 -22 -114 -41 -450 -141 -530 -158 -14 -3 -29
-6 -35 -8 -5 -1 -28 -8 -50 -14 -22 -6 -56 -14 -75 -17 -45 -9 -65 -13 -65
-15 0 -3 -42 -12 -110 -24 -11 -2 -27 -6 -35 -9 -8 -4 -31 -8 -50 -11 -19 -2
-35 -5 -35 -6 0 -1 -11 -3 -25 -6 -14 -2 -36 -6 -50 -8 -14 -3 -81 -14 -150
-26 -69 -11 -136 -23 -150 -25 -14 -3 -52 -7 -85 -10 -33 -3 -87 -10 -120 -16
-33 -5 -83 -12 -111 -14 -27 -2 -72 -7 -100 -9 -63 -7 -161 -16 -249 -23 -38
-3 -1442 -7 -3120 -8 -1677 -2 -3060 -4 -3072 -4 -20 -1 -20 -3 -10 -38 6 -21
16 -41 22 -45 5 -4 7 -8 3 -8 -8 0 -2 -18 49 -165 83 -234 229 -539 348 -725
22 -36 44 -73 48 -82 3 -10 11 -18 17 -18 5 0 10 -6 10 -13 0 -7 10 -27 23
-44 12 -17 29 -41 37 -53 40 -59 190 -252 255 -329 11 -13 40 -45 65 -71 25
-26 54 -58 66 -71 40 -45 229 -225 293 -278 35 -29 70 -58 77 -64 6 -7 24 -21
40 -32 15 -11 32 -25 38 -30 75 -70 551 -375 585 -375 5 0 20 -9 35 -21 14
-11 26 -18 26 -16 0 3 40 -15 90 -39 135 -67 441 -186 512 -199 10 -2 23 -7
29 -11 12 -7 178 -53 214 -59 11 -1 47 -10 80 -18 61 -16 120 -27 165 -33 14
-1 25 -3 25 -4 0 -1 9 -3 20 -4 11 -2 40 -7 65 -11 25 -4 59 -9 75 -11 17 -1
55 -5 85 -9 30 -3 84 -8 120 -12 149 -15 612 -7 760 12 19 3 55 7 80 10 25 2
56 7 70 10 14 3 45 8 70 11 25 3 54 8 65 11 11 2 34 6 50 9 17 3 55 12 85 19
30 8 69 16 85 19 17 3 53 12 80 20 131 37 232 67 250 76 18 8 93 33 105 35 3
0 15 6 28 13 12 7 22 10 22 7 0 -3 17 4 37 15 21 11 42 20 46 20 26 0 467 218
487 241 3 3 20 11 38 18 17 8 32 17 32 22 0 5 5 9 10 9 6 0 23 8 38 19 36 25
140 94 160 106 9 6 19 12 22 15 3 3 39 30 80 60 41 30 83 62 93 70 145 118
230 195 346 310 89 89 193 202 236 256 17 21 39 48 51 61 11 12 29 34 40 49
25 34 71 96 82 109 4 6 28 39 52 75 24 36 46 67 50 70 4 3 10 12 13 20 4 8 16
29 27 45 11 17 23 38 26 48 4 9 9 17 13 17 4 0 19 25 35 55 15 30 32 57 37 60
5 4 9 15 9 26 0 10 5 19 10 19 6 0 10 -12 10 -27 0 -16 1 -437 3 -938 l2 -910
1545 0 1545 0 0 1542 c0 849 2 1543 5 1543 3 0 20 -21 37 -47 17 -27 63 -93
102 -148 39 -55 74 -107 78 -115 4 -8 10 -17 13 -20 4 -3 24 -30 43 -60 20
-30 50 -73 67 -95 16 -22 34 -49 39 -60 5 -12 16 -27 25 -34 9 -7 16 -18 16
-23 0 -5 5 -14 11 -21 6 -7 46 -64 89 -127 44 -63 84 -120 90 -127 5 -7 10
-16 10 -22 0 -5 4 -11 8 -13 8 -3 161 -221 187 -266 6 -9 12 -19 15 -22 6 -6
30 -41 101 -145 29 -44 57 -81 61 -83 5 -2 8 -10 8 -18 0 -8 5 -14 10 -14 6 0
10 -7 10 -15 0 -8 4 -15 8 -15 4 0 23 -25 41 -55 18 -30 37 -55 42 -55 5 0 9
-5 9 -11 0 -9 55 -95 70 -109 3 -3 20 -27 38 -55 17 -27 37 -56 43 -64 7 -7
37 -50 67 -95 110 -163 166 -241 174 -244 4 -2 8 -8 8 -13 0 -10 94 -151 123
-183 9 -11 17 -23 17 -27 0 -4 6 -14 13 -21 6 -7 35 -47 62 -88 27 -41 52 -77
55 -80 4 -4 43 -61 165 -240 16 -25 32 -47 35 -50 3 -3 30 -41 59 -85 30 -44
59 -81 63 -83 4 -2 8 -10 8 -17 0 -8 8 -16 18 -19 9 -2 708 -4 1554 -4 l1536
1 0 591 c1 325 1 596 2 601 1 6 2 26 1 45 -2 64 -2 905 -1 915 1 6 2 26 1 45
-6 217 -4 910 2 910 5 0 5 5 2 10 -5 9 -10 606 -5 635 1 6 2 26 1 45 -2 64 -2
905 -1 915 1 6 2 26 1 45 -6 217 -4 910 2 910 5 0 5 5 2 10 -5 9 -10 606 -5
635 1 6 2 26 1 45 -6 218 -4 910 2 910 5 0 6 4 3 9 -5 7 -8 109 -6 181 1 8 0
40 -1 71 l-2 56 -429 -1 c-235 -1 -428 2 -428 6 0 4 -10 4 -22 0 -13 -4 -36
-6 -53 -5 -31 4 -43 3 -110 0 -22 -2 -50 1 -62 5 -13 4 -23 4 -23 0 0 -4 -20
-7 -45 -7 -25 0 -45 3 -45 8 0 4 -5 5 -11 2 -15 -10 -109 -12 -109 -3 0 4 -10
4 -22 0 -13 -4 -36 -6 -53 -5 -31 4 -43 3 -110 0 -22 -2 -50 1 -62 5 -13 4
-23 4 -23 0 0 -4 -20 -7 -45 -7 -25 0 -45 3 -45 8 0 4 -5 5 -11 2 -15 -10
-109 -12 -109 -3 0 4 -10 4 -22 0 -13 -4 -36 -6 -53 -5 -16 2 -34 3 -40 3
-570 -4 -754 -4 -772 2 -13 4 -23 4 -23 0 0 -4 -20 -7 -45 -7 -25 0 -45 3 -45
8 0 4 -5 5 -11 2 -15 -10 -109 -12 -109 -3 0 4 -8 4 -17 1 -9 -4 -44 -7 -77
-7 l-61 -1 -1 -1540 c-1 -847 -2 -1542 -3 -1544 -1 -3 -16 18 -35 45 -19 27
-39 54 -43 60 -4 5 -12 18 -18 27 -23 38 -180 263 -192 275 -7 7 -13 17 -13
21 0 4 -11 21 -25 37 -14 16 -25 34 -25 41 0 6 -4 13 -8 15 -8 3 -80 106 -226
323 -33 50 -66 94 -73 98 -7 4 -13 14 -13 21 0 7 -8 21 -18 32 -9 10 -40 52
-67 93 -64 96 -113 168 -145 211 -14 19 -30 42 -35 51 -29 49 -79 119 -84 119
-3 0 -12 13 -19 28 -6 16 -21 38 -32 50 -11 12 -20 26 -20 32 0 5 -4 10 -9 10
-5 0 -13 10 -17 22 -3 12 -13 28 -21 36 -8 8 -37 49 -66 91 -28 42 -122 179
-209 304 -87 125 -158 232 -158 237 0 6 -3 10 -8 10 -4 0 -18 18 -32 40 -14
22 -28 40 -32 40 -5 0 -8 6 -8 14 0 8 -6 21 -13 28 -22 23 -87 118 -87 127 0
5 -3 11 -7 13 -5 2 -28 32 -53 68 -24 36 -48 67 -52 68 -4 2 -8 9 -8 16 0 6
-13 27 -30 46 -16 19 -29 41 -30 48 0 6 -4 12 -10 12 -5 0 -10 7 -10 15 0 8
-4 15 -8 15 -5 0 -15 12 -23 28 -8 15 -20 33 -27 41 -12 13 -48 64 -77 110
-44 70 -43 69 -101 67 -29 0 -54 2 -54 6 0 4 -10 4 -22 0 -13 -4 -36 -6 -53
-5 -31 4 -43 3 -110 0 -22 -2 -50 1 -62 5 -13 4 -23 4 -23 0 0 -4 -20 -7 -45
-7 -25 0 -45 3 -45 8 0 4 -5 5 -11 2 -15 -10 -109 -12 -109 -3 0 4 -10 4 -22
0 -13 -4 -36 -6 -53 -5 -31 4 -43 3 -110 0 -22 -2 -50 1 -62 5 -13 4 -23 4
-23 0 0 -4 -20 -7 -45 -7 -25 0 -45 3 -45 8 0 4 -5 5 -11 2 -15 -10 -109 -12
-109 -3 0 4 -10 4 -22 0 -13 -4 -36 -6 -53 -5 -16 2 -34 3 -40 3 -640 -4 -845
-4 -845 2 0 4 -10 4 -22 0 -13 -4 -36 -6 -53 -5 -31 4 -43 3 -110 0 -22 -2
-50 1 -62 5 -13 4 -23 4 -23 0 0 -4 -20 -7 -45 -7 -25 0 -45 3 -45 8 0 4 -5 5
-11 2 -15 -10 -109 -12 -109 -3 0 4 -10 4 -22 0 -13 -4 -36 -6 -53 -5 -31 4
-43 3 -110 0 -22 -2 -50 1 -62 5 -13 4 -23 4 -23 0 0 -4 -20 -7 -45 -7 -25 0
-45 3 -45 8 0 4 -5 5 -11 2 -15 -10 -109 -12 -109 -3 0 4 -10 4 -22 0 -13 -4
-37 -7 -55 -6 l-32 2 0 -881 c0 -485 -1 -911 -1 -947 l0 -65 -33 60 c-34 62
-108 186 -117 195 -3 3 -11 17 -19 32 -8 15 -22 37 -33 47 -10 11 -18 23 -18
26 0 9 -153 213 -200 267 -14 15 -36 42 -50 60 -95 120 -315 338 -475 472 -38
32 -71 63 -73 67 -2 5 -8 9 -13 9 -8 0 -53 33 -136 101 -7 5 -28 19 -48 30
-19 12 -35 25 -35 29 0 4 -8 10 -17 14 -10 3 -37 18 -60 33 -159 106 -454 265
-603 326 -25 11 -58 25 -75 32 -28 13 -159 63 -180 69 -5 2 -17 6 -25 9 -17 6
-176 56 -200 63 -8 2 -35 8 -60 15 -25 6 -54 14 -65 19 -11 5 -36 11 -55 14
-19 3 -45 8 -57 11 -80 19 -250 49 -343 61 -129 16 -277 27 -382 28 -54 1 -98
4 -98 8 0 4 -13 3 -29 -2 -19 -5 -31 -5 -33 1 -2 6 -6 8 -9 4z"/>
<path d="M22556 21081 c-10 -4 -32 -6 -50 -4 -17 1 -38 0 -46 -2 -13 -4 -15
-432 -13 -3782 1 -2078 2 -3783 3 -3789 0 -16 3088 -16 3092 0 3 9 2 7511 -1
7558 -1 14 -11 17 -53 17 -67 1 -84 0 -133 -2 -22 -2 -50 1 -62 5 -13 4 -23 4
-23 0 0 -4 -20 -7 -45 -7 -25 0 -45 3 -45 8 0 4 -5 5 -11 2 -15 -10 -109 -12
-109 -3 0 4 -10 4 -22 0 -13 -4 -36 -6 -53 -5 -31 4 -43 3 -110 0 -22 -2 -50
1 -62 5 -13 4 -23 4 -23 0 0 -4 -20 -7 -45 -7 -25 0 -45 3 -45 8 0 4 -5 5 -11
2 -15 -10 -109 -12 -109 -3 0 4 -10 4 -22 0 -13 -4 -36 -6 -53 -5 -38 4 -32 4
-148 1 -53 -2 -97 0 -97 4 0 4 -10 4 -22 0 -13 -4 -36 -6 -53 -5 -31 4 -43 3
-110 0 -22 -2 -50 1 -62 5 -13 4 -23 4 -23 0 0 -4 -20 -7 -45 -7 -25 0 -45 3
-45 8 0 4 -5 5 -11 2 -15 -10 -109 -12 -109 -3 0 4 -10 4 -22 0 -13 -4 -36 -6
-53 -5 -31 4 -43 3 -110 0 -22 -2 -50 1 -62 5 -13 4 -23 4 -23 0 0 -4 -20 -7
-45 -7 -25 0 -45 3 -45 8 0 4 -5 5 -11 2 -15 -10 -109 -12 -109 -3 0 4 -10 4
-22 0 -13 -4 -36 -6 -53 -5 -31 4 -43 3 -110 0 -22 -2 -50 1 -62 5 -13 4 -23
4 -23 0 0 -4 -20 -7 -45 -7 -25 0 -45 3 -45 8 0 4 -5 5 -11 2 -16 -10 -109
-12 -109 -2 0 4 -5 5 -10 2 -16 -10 -110 -12 -110 -2 0 4 -5 5 -11 2 -14 -9
-108 -12 -111 -4 -2 3 -11 3 -22 0z"/>
<path d="M26377 21083 c-4 -3 -73 -7 -154 -7 l-148 -1 0 -3790 0 -3790 1545 0
1545 0 0 1547 c0 1465 1 1547 17 1525 10 -12 43 -60 75 -107 32 -47 62 -90 68
-97 5 -7 16 -19 23 -27 6 -8 12 -18 12 -21 0 -3 23 -36 50 -75 28 -39 50 -74
50 -79 0 -5 3 -11 8 -13 7 -3 11 -8 87 -118 257 -372 305 -442 305 -446 0 -3
6 -12 13 -19 34 -39 117 -163 117 -175 0 -6 3 -10 8 -10 4 0 18 -18 32 -40 14
-22 28 -40 31 -40 4 0 9 -8 12 -17 4 -10 38 -63 77 -118 78 -110 159 -228 175
-253 6 -10 13 -19 16 -22 6 -5 146 -209 164 -238 6 -10 12 -19 15 -22 3 -3 28
-39 55 -80 28 -41 58 -83 68 -94 9 -11 17 -26 17 -33 0 -7 5 -13 10 -13 6 0
15 -10 20 -22 6 -13 52 -82 102 -155 89 -126 151 -216 242 -348 22 -33 47 -66
54 -73 6 -7 12 -18 12 -23 0 -5 8 -17 18 -27 9 -10 22 -26 27 -35 6 -9 43 -65
84 -125 l74 -109 1549 0 c1300 0 1548 2 1544 13 -3 8 -2 14 2 14 4 0 7 27 7
60 0 33 -3 60 -7 60 -4 0 -3 14 2 30 5 17 5 30 1 30 -4 0 -5 22 -1 50 3 27 3
56 -2 64 -5 8 -4 17 1 21 7 4 7 15 1 30 -5 14 -6 25 -2 25 4 0 7 16 7 35 0 19
-3 35 -7 35 -4 0 -3 14 2 30 5 17 5 30 1 30 -4 0 -5 20 -1 45 4 25 3 48 -1 51
-5 2 -4 15 0 27 5 13 5 30 0 39 -5 9 -6 19 -1 22 9 5 6 81 -3 96 -3 6 -2 10 2
10 9 0 7 94 -2 118 -2 6 -1 12 3 12 8 0 7 132 -1 154 -4 9 -2 18 3 21 5 3 5
18 0 35 -5 17 -6 30 -2 30 8 0 6 86 -3 99 -3 5 -1 12 4 16 7 4 7 15 1 30 -6
15 -6 25 0 25 5 0 5 12 0 29 -4 16 -6 32 -3 35 8 8 9 76 2 76 -4 0 -3 15 1 34
4 18 3 40 -1 49 -6 9 -5 18 0 21 6 4 6 18 1 36 -5 17 -6 30 -2 30 8 0 6 86 -3
99 -3 5 -1 12 4 16 7 4 7 15 1 30 -5 14 -6 25 -1 25 5 0 5 16 1 35 -4 19 -5
35 -1 35 7 0 6 133 -2 154 -4 9 -2 18 3 21 5 3 5 18 0 35 -5 17 -6 30 -2 30 8
0 6 86 -3 99 -3 5 -1 12 4 16 7 4 7 15 1 30 -6 15 -6 25 0 25 5 0 5 12 0 29
-4 16 -6 32 -3 35 8 8 9 76 2 76 -4 0 -3 15 1 34 4 18 3 40 -1 49 -6 9 -5 18
0 21 6 4 6 18 1 36 -5 17 -6 30 -2 30 8 0 6 86 -3 99 -3 5 -1 12 4 16 7 4 7
15 1 30 -5 14 -6 25 -1 25 5 0 5 16 1 35 -4 19 -5 35 -1 35 7 0 6 133 -2 154
-4 9 -2 18 3 21 5 3 5 18 0 35 -5 17 -6 30 -2 30 8 0 7 68 -1 76 -3 3 -2 16 3
28 4 12 4 29 -1 38 -5 9 -6 19 -1 22 9 5 6 81 -3 96 -3 6 -2 10 2 10 9 0 7 94
-2 118 -2 6 -1 12 3 12 8 0 7 132 -1 154 -4 9 -2 18 3 21 5 3 5 18 0 35 -5 17
-6 30 -2 30 8 0 6 86 -3 99 -3 5 -1 12 4 16 7 4 7 15 1 30 -6 15 -6 25 0 25 5
0 5 12 0 29 -4 16 -6 32 -3 35 8 8 9 76 2 76 -4 0 -3 15 1 34 4 18 3 40 -1 49
-6 9 -5 18 0 21 6 4 6 18 1 36 -5 17 -6 30 -2 30 8 0 6 86 -3 99 -3 5 -1 12 4
16 7 4 7 15 1 30 -5 14 -6 25 -1 25 5 0 5 16 1 35 -4 19 -5 35 -1 35 7 0 6
133 -2 154 -4 9 -2 18 3 21 5 3 5 18 0 35 -5 17 -6 30 -2 30 8 0 6 86 -3 99
-3 5 -1 12 4 16 7 4 7 15 1 30 -6 15 -6 25 0 25 5 0 5 12 0 29 -4 16 -6 32 -3
35 8 8 9 76 2 76 -4 0 -3 15 1 34 4 18 3 40 -1 49 -6 9 -5 18 0 21 6 4 6 18 1
36 -5 17 -6 30 -2 30 8 0 6 86 -3 99 -3 5 -1 12 4 16 7 4 7 15 1 30 -5 14 -6
25 -1 25 5 0 5 16 1 35 -4 19 -5 35 -1 35 7 0 6 133 -2 154 -4 9 -2 18 3 21 5
3 5 18 0 35 -5 17 -5 30 -1 30 6 0 7 37 1 65 -1 6 -2 12 0 15 4 12 5 80 0 80
-3 0 -4 17 -3 37 1 21 2 38 3 38 1 0 2 15 3 33 1 17 -1 32 -4 32 -4 0 -3 18 1
39 4 21 3 46 -2 54 -5 9 -4 18 1 21 6 4 6 18 1 36 -5 17 -6 30 -2 30 8 0 6 86
-3 99 -3 5 -1 12 4 16 7 4 7 15 1 30 -5 14 -6 25 -1 25 5 0 5 16 1 35 -4 19
-5 35 -1 35 7 0 6 133 -2 154 -4 9 -2 18 3 21 5 3 5 18 0 35 -5 17 -6 30 -2
30 8 0 6 86 -3 99 -3 5 -1 12 4 16 7 4 7 15 1 30 -6 15 -6 25 0 25 5 0 5 12 0
29 -4 16 -6 32 -3 35 8 8 9 76 2 76 -4 0 -3 17 1 38 4 21 3 48 -1 60 -5 12 -4
24 1 27 6 3 6 15 0 30 -6 15 -6 27 0 30 6 3 6 15 0 29 -5 13 -6 27 -3 30 8 8
10 76 2 76 -4 0 -3 15 1 34 4 18 3 40 -1 49 -6 9 -5 18 0 21 6 4 6 18 1 36 -5
17 -6 30 -2 30 8 0 7 89 -2 97 -3 3 -1 14 4 23 7 12 6 21 -3 28 -7 5 -119 9
-275 8 -144 0 -262 2 -262 6 0 4 -10 4 -22 0 -13 -4 -36 -6 -53 -5 -31 4 -43
3 -110 0 -22 -2 -50 1 -62 5 -13 4 -23 4 -23 0 0 -4 -20 -7 -45 -7 -25 0 -45
3 -45 8 0 4 -5 5 -11 2 -15 -10 -109 -12 -109 -3 0 4 -10 4 -22 0 -13 -4 -36
-6 -53 -5 -31 4 -43 3 -110 0 -22 -2 -50 1 -62 5 -13 4 -23 4 -23 0 0 -4 -20
-7 -45 -7 -25 0 -45 3 -45 8 0 4 -5 5 -11 2 -15 -10 -109 -12 -109 -3 0 4 -10
4 -22 0 -13 -4 -36 -6 -53 -5 -16 2 -34 3 -40 3 -570 -4 -754 -4 -772 2 -13 4
-23 4 -23 0 0 -4 -20 -7 -45 -7 -25 0 -45 3 -45 8 0 4 -5 5 -11 2 -15 -10
-109 -12 -109 -3 0 4 -10 4 -22 0 -13 -4 -36 -6 -53 -5 -31 4 -43 3 -110 0
-22 -2 -50 1 -62 5 -13 4 -23 4 -23 0 0 -4 -16 -7 -35 -7 -19 0 -35 5 -35 10
0 7 -3 7 -8 0 -4 -5 -34 -10 -67 -10 l-60 0 0 -1537 c0 -845 -2 -1539 -5
-1541 -3 -3 -39 45 -80 106 -41 62 -77 114 -80 117 -3 3 -39 55 -80 115 -40
61 -78 112 -82 113 -4 2 -8 9 -8 15 0 7 -11 25 -25 41 -14 16 -25 33 -25 37 0
4 -6 14 -13 21 -7 7 -37 49 -67 93 -29 44 -57 82 -62 83 -4 2 -8 8 -8 13 0 8
-65 105 -80 119 -3 3 -23 32 -44 64 -21 33 -43 64 -47 70 -20 24 -80 112 -86
126 -4 8 -9 17 -13 20 -13 11 -210 301 -210 309 0 5 -4 11 -8 13 -7 2 -95 125
-127 177 -5 9 -12 18 -15 21 -14 13 -90 131 -90 140 0 5 -4 10 -8 10 -5 0 -24
24 -42 53 -19 28 -37 54 -40 57 -4 3 -13 16 -20 29 -10 20 -26 43 -88 126 -9
13 -102 148 -122 179 -76 115 -139 205 -157 226 -13 14 -23 28 -23 32 0 6
-114 174 -138 204 -5 5 -22 30 -38 55 -16 24 -35 50 -41 57 -7 7 -13 17 -13
22 0 5 -6 15 -13 22 -7 7 -41 54 -76 105 l-62 92 -55 -2 c-29 -2 -54 0 -54 5
0 4 -10 4 -22 0 -13 -4 -36 -6 -53 -5 -16 2 -34 3 -40 3 -530 -4 -1485 -3
-1485 2 0 4 -10 4 -22 0 -13 -4 -36 -6 -53 -5 -31 4 -43 3 -110 0 -22 -2 -50
1 -62 5 -13 4 -23 4 -23 0 0 -4 -20 -7 -45 -7 -25 0 -45 3 -45 8 0 4 -5 5 -11
2 -15 -10 -109 -12 -109 -3 0 4 -10 4 -22 0 -13 -4 -36 -6 -53 -5 -31 4 -43 3
-110 0 -22 -2 -50 1 -62 5 -13 4 -23 4 -23 0 0 -4 -20 -7 -45 -7 -25 0 -45 3
-45 8 0 4 -5 5 -11 2 -15 -10 -109 -12 -109 -3 0 4 -10 4 -22 0 -26 -9 -70 -8
-85 1 -6 4 -13 4 -16 0z"/>
<path d="M4325 17780 c5 -14 9 -32 10 -40 1 -8 5 -26 8 -40 6 -26 24 -117 32
-160 3 -14 8 -38 11 -55 4 -16 8 -39 10 -50 1 -11 10 -54 19 -95 9 -41 18 -87
20 -102 2 -15 6 -35 9 -45 3 -10 8 -31 10 -48 3 -16 11 -55 17 -85 6 -30 12
-64 14 -75 2 -11 4 -22 5 -25 1 -3 3 -9 4 -15 11 -57 19 -96 26 -130 5 -22 12
-55 15 -73 l5 -33 -1642 4 c-904 2 -1658 6 -1675 10 -18 4 -45 9 -60 11 -59 8
-110 19 -159 32 -28 8 -60 17 -70 19 -33 8 -147 51 -207 78 -32 15 -62 27 -67
27 -6 0 -10 4 -10 10 0 5 -3 9 -8 8 -10 -2 -215 122 -232 141 -3 3 -27 24 -55
46 -27 22 -82 72 -121 110 -72 71 -72 71 -76 43 -3 -16 -1 -31 3 -33 8 -6 7
-24 -3 -40 -3 -5 -2 -19 2 -30 4 -11 4 -32 -1 -47 -4 -16 -4 -28 1 -28 5 0 5
-13 0 -30 -5 -16 -5 -32 0 -35 5 -3 5 -18 0 -33 -4 -16 -4 -36 1 -45 6 -9 5
-18 0 -21 -6 -4 -6 -18 -1 -36 5 -17 6 -30 2 -30 -8 0 -6 -86 3 -99 3 -5 1
-12 -4 -16 -7 -4 -7 -15 -1 -30 5 -14 6 -25 1 -25 -5 0 -5 -16 -1 -35 4 -19 5
-35 1 -35 -7 0 -6 -133 2 -154 4 -9 2 -18 -3 -21 -5 -3 -5 -18 0 -35 5 -17 6
-30 2 -30 -8 0 -6 -86 3 -99 3 -5 1 -12 -4 -16 -7 -4 -7 -15 -1 -30 6 -15 6
-25 0 -25 -5 0 -5 -12 0 -29 4 -16 6 -32 3 -35 -8 -8 -9 -76 -2 -76 4 0 3 -15
-1 -34 -4 -18 -3 -40 1 -49 6 -9 5 -18 0 -21 -6 -4 -6 -18 -1 -36 5 -17 6 -30
2 -30 -8 0 -6 -86 3 -99 3 -5 1 -12 -4 -16 -7 -4 -7 -15 -1 -30 5 -14 6 -25 1
-25 -5 0 -5 -16 -1 -35 4 -19 5 -35 1 -35 -7 0 -6 -133 2 -154 4 -9 2 -18 -3
-21 -5 -3 -5 -18 0 -35 5 -17 6 -30 2 -30 -8 0 -6 -86 3 -99 3 -5 1 -12 -4
-16 -7 -4 -7 -15 -1 -30 6 -15 6 -25 0 -25 -5 0 -5 -12 0 -29 4 -16 6 -32 3
-35 -8 -8 -9 -76 -2 -76 4 0 3 -15 -1 -34 -4 -18 -3 -40 1 -49 6 -9 5 -18 0
-21 -6 -4 -6 -18 -1 -36 5 -17 6 -30 2 -30 -8 0 -6 -86 3 -99 3 -5 1 -12 -4
-16 -7 -4 -7 -15 -1 -30 5 -14 6 -25 1 -25 -5 0 -5 -16 -1 -35 4 -19 5 -35 1
-35 -7 0 -6 -133 2 -154 4 -9 2 -18 -3 -21 -5 -3 -5 -18 0 -35 5 -17 6 -30 2
-30 -8 0 -6 -86 3 -99 3 -5 1 -12 -4 -16 -7 -4 -7 -15 -1 -30 6 -15 6 -25 0
-25 -5 0 -5 -12 0 -29 4 -16 6 -32 3 -35 -8 -8 -9 -76 -2 -76 4 0 3 -15 -1
-34 -4 -18 -3 -40 1 -49 6 -9 5 -18 0 -21 -6 -4 -6 -18 -1 -36 5 -17 6 -30 2
-30 -8 0 -6 -86 3 -99 3 -5 1 -12 -4 -16 -7 -4 -7 -15 -1 -30 5 -14 6 -25 2
-25 -4 0 -7 -29 -7 -65 0 -36 3 -65 6 -65 4 0 3 -18 -1 -40 -4 -22 -3 -43 1
-46 5 -3 5 -13 1 -22 -5 -9 -6 -27 -3 -38 l6 -22 3565 0 c1961 0 3569 2 3574
5 4 3 4 8 0 12 -5 3 -31 40 -59 81 -27 41 -52 77 -55 80 -3 3 -28 39 -55 80
-28 41 -52 77 -55 80 -3 3 -30 41 -60 85 -30 44 -58 82 -62 83 -4 2 -8 10 -8
18 0 8 -4 14 -10 14 -5 0 -10 7 -10 15 0 8 -4 15 -10 15 -5 0 -10 6 -10 14 0
8 -4 16 -8 18 -4 2 -50 66 -102 142 -52 76 -102 146 -110 155 -8 9 -21 29 -27
44 -7 15 -17 27 -23 27 -5 0 -10 6 -10 13 0 7 -8 22 -17 33 -10 10 -38 48 -62
84 -64 94 -163 237 -258 373 -46 65 -83 122 -83 127 0 5 -4 10 -8 12 -5 2 -37
46 -72 98 -36 52 -68 97 -72 98 -4 2 -8 10 -8 18 0 8 -4 14 -8 14 -5 0 -15 12
-23 28 -8 15 -17 29 -20 32 -7 6 -109 153 -124 178 -5 9 -13 19 -16 22 -3 3
-34 48 -69 100 -36 52 -69 100 -75 107 -5 7 -16 19 -23 28 -7 8 -9 15 -5 15 4
0 3 4 -3 8 -5 4 -35 43 -65 87 -29 44 -60 86 -66 93 -7 7 -13 17 -13 22 0 5
-6 15 -13 22 -7 7 -37 49 -67 93 -30 44 -59 85 -63 90 -4 6 -35 51 -69 100
-95 138 -140 204 -196 283 -29 39 -52 76 -52 81 0 5 -4 11 -8 13 -4 2 -39 48
-77 103 -118 173 -159 230 -170 237 -5 4 -6 8 -1 8 5 0 0 10 -11 23 -11 12
-71 96 -133 187 -63 91 -140 202 -172 247 -32 44 -58 86 -58 91 0 6 -4 12 -8
14 -4 2 -23 26 -42 53 -19 28 -46 64 -59 80 -23 28 -23 29 -16 5z"/>
</g>
</svg>
